<?xml version="1.0" standalone="no"?>
<!DOCTYPE svg PUBLIC "-//W3C//DTD SVG 20010904//EN"
 "http://www.w3.org/TR/2001/REC-SVG-20010904/DTD/svg10.dtd">
<svg version="1.0" xmlns="http://www.w3.org/2000/svg"
 width="1080.000000pt" height="1080.000000pt" viewBox="0 0 1080.000000 1080.000000"
 preserveAspectRatio="xMidYMid meet">
<metadata>
Created by potrace 1.11, written by Peter Selinger 2001-2013
</metadata>
<g transform="translate(0.000000,1080.000000) scale(0.100000,-0.100000)"
fill="#000000" stroke="none">
<path d="M2945 9523 c-124 -222 -272 -617 -311 -827 -6 -34 -5 -38 12 -32 83
25 344 37 479 22 22 -3 67 -8 100 -11 33 -4 68 -9 78 -11 23 -7 22 12 -8 126
-57 219 -122 394 -228 613 -44 92 -84 167 -88 167 -4 0 -19 -21 -34 -47z"/>
<path d="M1573 9003 c4 -98 9 -189 11 -203 3 -14 8 -52 11 -85 5 -50 23 -167
40 -260 5 -31 44 -197 53 -229 l8 -28 29 24 c176 145 326 238 519 323 l59 25
-24 28 c-162 184 -434 410 -668 557 l-44 27 6 -179z"/>
<path d="M4330 9147 c-208 -127 -430 -311 -638 -529 l-43 -45 133 -65 c144
-71 306 -174 406 -257 35 -29 65 -51 67 -49 12 13 77 304 90 406 3 23 8 61 11
85 21 153 33 478 17 476 -4 0 -24 -11 -43 -22z"/>
<path d="M2750 8486 c-835 -120 -1474 -813 -1568 -1701 -12 -119 -6 -383 11
-500 75 -494 299 -903 674 -1227 l42 -37 -95 -47 c-79 -40 -97 -46 -105 -34
-8 13 -10 13 -19 0 -5 -8 -10 -20 -10 -27 0 -11 -19 -27 -95 -83 -11 -8 -67
-62 -125 -120 -210 -210 -343 -462 -401 -763 -24 -119 -32 -346 -17 -477 24
-205 101 -427 211 -610 22 -36 42 -67 46 -70 4 -3 15 -18 24 -33 36 -57 159
-187 229 -245 200 -162 392 -252 628 -293 101 -18 241 -18 3545 -16 l3440 2
90 21 c140 33 240 69 370 134 483 241 819 733 889 1301 13 108 14 373 2 429
-3 14 -9 45 -12 70 -25 194 -122 454 -242 647 -241 389 -656 670 -1075 729
-23 3 -55 8 -72 10 -44 6 -285 7 -320 1 -16 -3 -49 -8 -72 -12 l-43 -7 -1 109
c-1 107 -2 122 -13 238 -75 737 -531 1418 -1165 1744 -182 93 -417 173 -574
196 -27 3 -58 8 -69 10 -32 7 -218 19 -273 19 -56 -1 -225 -13 -258 -20 -12
-2 -39 -6 -62 -10 -65 -9 -177 -34 -215 -46 -19 -7 -37 -13 -40 -13 -38 -6
-193 -69 -295 -119 -203 -99 -371 -217 -535 -378 -84 -81 -191 -205 -236 -270
-16 -24 -31 -45 -34 -48 -9 -9 -63 -93 -102 -160 -31 -52 -38 -60 -39 -40 -2
65 -29 229 -55 331 -180 721 -725 1258 -1421 1400 -129 26 -409 34 -543 15z"/>
<path d="M550 8072 c0 -28 132 -246 237 -393 114 -161 311 -386 323 -372 4 4
17 37 29 73 32 99 131 287 227 431 47 72 84 132 82 134 -16 16 -291 83 -403
99 -22 3 -71 10 -110 16 -114 17 -385 25 -385 12z"/>
<path d="M5195 8072 c-87 -4 -306 -33 -405 -53 -94 -19 -278 -67 -292 -75 -4
-3 15 -36 43 -74 107 -147 220 -358 272 -507 12 -35 25 -63 29 -63 10 0 106
102 187 200 153 183 394 557 368 571 -11 7 -89 7 -202 1z"/>
<path d="M960 6937 c-201 -60 -351 -118 -513 -198 -116 -57 -277 -150 -277
-160 0 -9 178 -113 278 -163 114 -57 306 -134 431 -172 143 -43 145 -43 137
-1 -15 71 -21 181 -21 347 1 159 4 206 21 323 6 41 3 42 -56 24z"/>
<path d="M1025 5774 c-139 -152 -248 -297 -362 -479 -87 -140 -126 -212 -116
-218 13 -7 316 7 370 17 10 2 43 7 73 10 128 16 434 87 453 106 5 4 -14 39
-41 77 -95 129 -196 317 -261 481 -18 45 -36 82 -40 82 -4 0 -38 -34 -76 -76z"/>
</g>
</svg>
